{
    "asset" : {
        "generator" : "Khronos glTF Blender I/O v1.7.33",
        "version" : "2.0"
    },
    "scene" : 0,
    "scenes" : [
        {
            "name" : "Scene",
            "nodes" : [
                0
            ]
        }
    ],
    "nodes" : [
        {
            "mesh" : 0,
            "name" : "Cube"
        }
    ],
    "materials" : [
        {
            "doubleSided" : true,
            "name" : "Material.003",
            "pbrMetallicRoughness" : {
                "baseColorFactor" : [
                    1,
                    0.7445775866508484,
                    0.3036414086818695,
                    1
                ],
                "metallicFactor" : 0,
                "roughnessFactor" : 0.5
            }
        }
    ],
    "meshes" : [
        {
            "name" : "Cube.001",
            "primitives" : [
                {
                    "attributes" : {
                        "POSITION" : 0,
                        "NORMAL" : 1,
                        "TEXCOORD_0" : 2
                    },
                    "indices" : 3,
                    "material" : 0
                }
            ]
        }
    ],
    "accessors" : [
        {
            "bufferView" : 0,
            "componentType" : 5126,
            "count" : 9192,
            "max" : [
                1.7523155212402344,
                2.6152589321136475,
                0.9919947385787964
            ],
            "min" : [
                -2.7491960525512695,
                -2.6152589321136475,
                -0.9919948577880859
            ],
            "type" : "VEC3"
        },
        {
            "bufferView" : 1,
            "componentType" : 5126,
            "count" : 9192,
            "type" : "VEC3"
        },
        {
            "bufferView" : 2,
            "componentType" : 5126,
            "count" : 9192,
            "type" : "VEC2"
        },
        {
            "bufferView" : 3,
            "componentType" : 5123,
            "count" : 13788,
            "type" : "SCALAR"
        }
    ],
    "bufferViews" : [
        {
            "buffer" : 0,
            "byteLength" : 110304,
            "byteOffset" : 0
        },
        {
            "buffer" : 0,
            "byteLength" : 110304,
            "byteOffset" : 110304
        },
        {
            "buffer" : 0,
            "byteLength" : 73536,
            "byteOffset" : 220608
        },
        {
            "buffer" : 0,
            "byteLength" : 27576,
            "byteOffset" : 294144
        }
    ],
    "buffers" : [
        {
            "byteLength" : 321720,
            "uri" : "Moon.bin"
        }
    ]
}
